<svg id="Layer_1" data-name="Layer 1" xmlns="http://www.w3.org/2000/svg" viewBox="0 0 533 1083"><defs><style>.cls-1{fill:#ededed;}</style></defs><title>TAP THEARTPRACHER</title><polygon class="cls-1" points="43.5 -1.5 0.5 314.61 1.5 533.34 72.5 -1.5 43.5 -1.5"/><polygon class="cls-1" points="153.5 320.25 112.5 -0.09 140.5 -0.09 189.5 368.23 153.5 320.25"/><polygon class="cls-1" points="92.5 165.02 78.5 269.45 115.5 554.51 176.5 626.48 176.5 581.32 141.5 537.58 92.5 165.02"/><polygon class="cls-1" points="231 0.62 189 55.65 194 97.99 266 0.62 231 0.62"/><polygon class="cls-1" points="202 158.67 320 0.62 353 0.62 207 199.59 202 158.67"/><polygon class="cls-1" points="215 261.69 365 57.06 421 57.06 422 563.68 369 635.65 214 635.65 214 594.73 394 594.73 394 66.94 240 272.98 352 423.97 352 471.95 220 294.14 215 261.69"/><polygon class="cls-1" points="231 381.64 238 435.26 312 536.87 347 536.87 231 381.64"/><polygon class="cls-1" points="352 195.36 294 272.98 352 352 352 305.43 327 272.98 352 241.93 352 195.36"/><polygon class="cls-1" points="167 412.68 183 538.28 259 538.28 167 412.68"/><polygon class="cls-1" points="57 426.8 50 474.78 66 493.12 57 426.8"/><polygon class="cls-1" points="43 536.87 37 576.38 130 690.69 150 666.7 43 536.87"/><polygon class="cls-1" points="39 651.18 39 699.16 82 751.37 101 725.97 39 651.18"/><polygon class="cls-1" points="39 769.72 39 802.17 52 786.65 39 769.72"/><polygon class="cls-1" points="61 845.92 176 707.62 176 754.19 82 869.91 61 845.92"/><polygon class="cls-1" points="111 906.6 176 826.16 176 874.14 130 930.59 111 906.6"/><polygon class="cls-1" points="533 57.06 463 57.06 463 562.27 533 658.23 533 610.25 493 556.63 493 96.58 533 96.58 533 57.06"/><polygon class="cls-1" points="381 690.69 442 608.84 533 730.2 533 778.18 443 654 399 713.27 398 714.68 381 690.69"/><polygon class="cls-1" points="443 727.38 426 749.96 533 896.72 533 850.15 443 727.38"/><polygon class="cls-1" points="399 786.65 381 810.64 487 954.58 505 930.59 399 786.65"/><polygon class="cls-1" points="214 692.1 330 692.1 373 749.96 355 773.95 324 733.02 214 733.02 214 692.1"/><path class="cls-1" d="M214,789.47V830.4h93l136,183.45,18-24L314,789.47S214,789,214,789.47Z"/><polygon class="cls-1" points="214 886.85 214 929.18 326 929.18 296 886.85 214 886.85"/><polygon class="cls-1" points="534 961.64 513 989.86 534 1018.09 534 961.64"/><polygon class="cls-1" points="214 985.63 214 1026.55 363 1026.55 404 1083 440 1083 368 985.63 214 985.63"/><polygon class="cls-1" points="486 1025.14 445 1083 480 1083 505 1049.13 486 1025.14"/><polygon class="cls-1" points="176 944.7 159 967.28 176 987.04 176 944.7"/><polygon class="cls-1" points="39 889.67 39 939.06 158 1083 176 1083 176 1057.6 39 889.67"/><polygon class="cls-1" points="39 1008.21 39 1059.01 58 1083 99 1083 39 1008.21"/></svg>